<?xml version="1.0" encoding="UTF-8" standalone="no"?>
<!-- Created with Inkscape (http://www.inkscape.org/) -->

<svg
   xmlns:dc="http://purl.org/dc/elements/1.1/"
   xmlns:cc="http://creativecommons.org/ns#"
   xmlns:rdf="http://www.w3.org/1999/02/22-rdf-syntax-ns#"
   xmlns:svg="http://www.w3.org/2000/svg"
   xmlns="http://www.w3.org/2000/svg"
   version="1.1"
   width="512"
   height="1024"
   viewBox="0 0 512 1024"
   id="svg3049">
  <title
     id="title3051">LuaBot logo</title>
  <defs
     id="defs3071" />
  <metadata
     id="metadata3053">
    <rdf:RDF>
      <cc:Work
         rdf:about="">
        <dc:format>image/svg+xml</dc:format>
        <dc:type
           rdf:resource="http://purl.org/dc/dcmitype/StillImage" />
        <dc:title>LuaBot logo</dc:title>
        <dc:creator>
          <cc:Agent>
            <dc:title></dc:title>
          </cc:Agent>
        </dc:creator>
        <cc:license
           rdf:resource="http://creativecommons.org/licenses/by/3.0/" />
      </cc:Work>
      <cc:License
         rdf:about="http://creativecommons.org/licenses/by/3.0/">
        <cc:permits
           rdf:resource="http://creativecommons.org/ns#Reproduction" />
        <cc:permits
           rdf:resource="http://creativecommons.org/ns#Distribution" />
        <cc:requires
           rdf:resource="http://creativecommons.org/ns#Notice" />
        <cc:requires
           rdf:resource="http://creativecommons.org/ns#Attribution" />
        <cc:permits
           rdf:resource="http://creativecommons.org/ns#DerivativeWorks" />
      </cc:License>
    </rdf:RDF>
  </metadata>
  <g
     transform="matrix(1.1179039,0,0,1.1729668,-30.183406,0)"
     id="g3081">
    <g
       transform="matrix(1.2724353,0,0,1.2721481,-76.617991,0)"
       id="g3063">
      <circle
         cx="473.505"
         cy="473.504"
         r="353.21301"
         transform="matrix(0.31609581,0,0,0.31609581,111.72973,-5.3217886)"
         id="circle3057"
         style="fill:#000080" />
      <a
         transform="matrix(0.31609581,0,0,0.31609581,106.32705,-32.822124)"
         id="a3073">
        <circle
           cx="619.81201"
           cy="327.19699"
           r="103.454"
           transform="translate(17.091913,87)"
           id="circle3059"
           style="fill:#ffffff" />
      </a>
      <circle
         cx="826.71802"
         cy="120.291"
         r="103.455"
         transform="matrix(0.31609581,0,0,0.31609581,101.74729,-5.3217886)"
         id="circle3061"
         style="fill:#000080" />
      <a
         transform="matrix(0.31609581,0,0,0.31609581,18.534925,-32.822315)"
         id="a3086">
        <circle
           cx="619.81201"
           cy="327.19699"
           r="103.454"
           transform="translate(0,87)"
           id="circle3088"
           style="fill:#ffffff" />
      </a>
      <path
         d="m 329.38706,173.25691 c 3.8598,5.38316 -19.17866,53.51848 -67.98437,53.51848 -34.44391,0 -73.73255,-47.80759 -67.98438,-53.51848 5.74817,-5.71089 19.72802,24.74132 67.98438,26.23723 48.25636,1.49591 64.12457,-31.62039 67.98437,-26.23723 z"
         id="path3090"
         style="fill:#ffffff" />
    </g>
    <g
       transform="matrix(1,0,0,0.88242773,0,102.64059)"
       id="g3072">
      <rect
         width="256"
         height="300"
         x="127.99998"
         y="274"
         id="rect3095"
         style="fill:#b3b3b3" />
      <rect
         width="64"
         height="300"
         x="421"
         y="274"
         id="rect3124"
         style="fill:#b3b3b3" />
      <rect
         width="64"
         height="300"
         x="27"
         y="274"
         id="rect3126"
         style="fill:#b3b3b3" />
      <rect
         width="39"
         height="61.832256"
         x="90"
         y="274"
         id="rect3128"
         style="fill:#b3b3b3" />
      <rect
         width="64"
         height="300"
         x="166"
         y="573"
         id="rect3141"
         style="fill:#b3b3b3" />
      <rect
         width="64"
         height="300"
         x="285"
         y="573"
         id="rect3145"
         style="fill:#b3b3b3" />
      <rect
         width="39"
         height="61.832256"
         x="383"
         y="274"
         id="rect2996"
         style="fill:#b3b3b3" />
    </g>
  </g>
</svg>
